# xmcd CD database file
#
# Track frame offsets:
#	150
#	11140
#	21196
#	32473
#	41588
#	52874
#	64139
#	75802
#	85207
#	95122
#	104723
#	115886
#	126490
#	139693
#	152709
#	164725
#	176411
#	185931
#	197453
#	207956
#	217832
#	226767
#	237225
#	247833
#	257339
#	266314
#	277356
#	288473
#	298516
#	307263
#	317914
#	329244
#	336414
#	348281
#	359496
#	370537
#	382806
#
# Disc length: 5261 seconds
#
# Revision: 0
# Processed by: cddbd v1.5.2PL0 Copyright (c) Steve Scherf et al.
# Submitted via: CDex 1.51
#
DISCID=32148b25
DTITLE=Jo Ann Campbell - Jukebox Pearls: Wait A Minute
DYEAR=2014
DGENRE=Country
TTITLE0=Tall Boy
TTITLE1=I'm Coming Home Late Tonight
TTITLE2=Johnny B. Goode
TTITLE3=You're Driving Me Mad
TTITLE4=I Really Really Love You
TTITLE5=Duane
TTITLE6=Breaking Up
TTITLE7=How About That
TTITLE8=Mr. Lee
TTITLE9=No Steady Date
TTITLE10=Wassa Matter With You Baby
TTITLE11=Boogie Woogie Country Girl
TTITLE12=Mama (Can I Go Out Tonite)
TTITLE13=I'm Nobody's Baby
TTITLE14=Wait A Minute
TTITLE15=Willie And The Hand Jive
TTITLE16=Eddie My Love
TTITLE17=Come On Baby
TTITLE18=Beg Your Pardon
TTITLE19=Give Me Five Minutes More
TTITLE20=Funny Thing
TTITLE21=I Can't Give You Anything But Love
TTITLE22=Jim Dandy
TTITLE23=Rock and Roll Love
TTITLE24=Nervous
TTITLE25=Donnie
TTITLE26=But Maybe This Year
TTITLE27=Beachcomber
TTITLE28=I Changed My Mind Jack
TTITLE29=Crazy Daisy
TTITLE30=Mama Don't Want No Twistin'
TTITLE31=Let Me Do My Twist
TTITLE32=Motorcycle Michael
TTITLE33=Kookie Little Paradise
TTITLE34=Where Ever You Go
TTITLE35=Happy New Year Baby
TTITLE36=Applause To You
EXTD=YEAR: 2014
EXTT0=
EXTT1=
EXTT2=
EXTT3=
EXTT4=
EXTT5=
EXTT6=
EXTT7=
EXTT8=
EXTT9=
EXTT10=
EXTT11=
EXTT12=
EXTT13=
EXTT14=
EXTT15=
EXTT16=
EXTT17=
EXTT18=
EXTT19=
EXTT20=
EXTT21=
EXTT22=
EXTT23=
EXTT24=
EXTT25=
EXTT26=
EXTT27=
EXTT28=
EXTT29=
EXTT30=
EXTT31=
EXTT32=
EXTT33=
EXTT34=
EXTT35=
EXTT36=
PLAYORDER=
